<svg id="check" xmlns="http://www.w3.org/2000/svg" width="15.553" height="16.487" viewBox="0 0 15.553 16.487">
  <path id="Path_203" data-name="Path 203" d="M455.835-45.415h-14.36a.433.433,0,0,1-.434-.433V-61.379a.433.433,0,0,1,.434-.433h9.84a.432.432,0,0,1,.433.433.432.432,0,0,1-.433.433h-9.407v14.666H455.4v-9.262a.433.433,0,0,1,.434-.433.433.433,0,0,1,.434.433v9.694a.433.433,0,0,1-.434.433" transform="translate(-441.041 61.902)" fill="red"/>
  <path id="Path_204" data-name="Path 204" d="M457.777-49.222a1.252,1.252,0,0,1-.836-.32l-2.7-2.414a1.256,1.256,0,0,1-.1-1.775,1.257,1.257,0,0,1,1.774-.1l1.613,1.441,6.023-9.177a1.257,1.257,0,0,1,1.739-.368,1.256,1.256,0,0,1,.367,1.739l-6.822,10.4a1.251,1.251,0,0,1-.886.56,1.283,1.283,0,0,1-.167.011" transform="translate(-450.302 62.139)" fill="red"/>
</svg>
